<svg version="1" xmlns="http://www.w3.org/2000/svg" width="746.667" height="746.667" viewBox="0 0 560.000000 560.000000"><path d="M264 18.8c-13.3 1.6-34.3 7.6-48.2 13.7-4.8 2.1-11.1 4-15.7 4.6-13.7 1.9-23.7 8.8-29 19.9-3.8 7.9-3.6 19.2.3 27 1.5 3 3.8 6.6 5.2 8.1 1.3 1.4 2.4 2.8 2.4 3.2 0 .4-1.7 3.3-3.7 6.4-6.8 10.6-11.7 24.5-14.2 39.8-.5 3.3-.8 15.2-.6 26.5.3 18.7.6 23.2 2.1 28.2.3 1-.2 1.9-1.5 2.3-3.2 1-9 7.2-11.1 11.7-1.7 3.8-2 6.6-2 23.8 0 16.7.3 20.1 1.9 23.5 2.3 5.2 7.8 10.7 12.1 12.4 6.2 2.3 6.3 2.5 8.1 11.7 6.3 32.4 27.2 61.1 55.7 76.5 4.8 2.6 6.2 3.9 6.2 5.6 0 1.3-.6 2.3-1.2 2.4-.7 0-2.2.2-3.3.4-1.1.2-3.8.6-6 1-30.7 4.7-49.1 16.8-52.7 34.8l-1.4 6.7-8.8 4.5c-35.3 18.2-60.8 48.4-72.5 86-4.6 15-6.1 25.6-6.1 44.1V560H480.3l-.6-19.3c-.8-27.2-4.7-42.9-15.9-64.8-13.6-26.6-36.1-49-62.4-62.4l-9.2-4.6-.7-4.7c-2-13.6-12-24.1-29-30.5-8.1-3.1-26.7-7.3-33.7-7.7-.5 0-.8-1.1-.8-2.3 0-1.6.9-2.8 2.7-3.6 1.5-.7 6.4-3.6 10.8-6.5 24.9-16.3 42.7-42.7 48.4-72 1-5.4 2.3-9.2 3.2-9.6 7.8-3.7 9.8-4.9 12.3-7.5 5.9-6.2 6.6-9.2 6.6-29.5 0-10.2-.4-20-1-21.9-1.5-5.2-5.5-10.4-10.5-13.6-3.1-1.9-4.4-3.3-4.1-4.4 3.9-12.8 5.1-23.1 5.1-44.1-.1-20.5-2.2-31.3-9.6-48.1-2.8-6.5-2.8-6.8-1.4-11.5 5-16.5-2.8-31.7-17.7-34.2-3.7-.7-4.6-1.3-6.7-5-3.5-6.5-9-9.7-16.5-9.6-5.7 0-6.3-.2-9.6-3.6-9.3-9.6-25.9-17.3-43.4-20-6.2-1-25.7-1.1-32.6-.2z"/></svg>